<svg xmlns="http://www.w3.org/2000/svg" viewBox="0 0 820 520" role="img" aria-labelledby="title desc">
  <title id="title">TickBags.com</title>
  <desc id="desc">TickBags brand lockup with seated person on a bean bag using a laptop.</desc>
  <rect width="820" height="520" fill="#ffffff"/>
  <g transform="translate(205 58)">
    <path d="M110 262c-60 0-107-42-107-108 0-72 58-133 134-133 80 0 147 58 147 138 0 94-79 146-174 146z" fill="#473f39"/>
    <path d="M158 74c36 0 67 22 85 52 11 19 16 39 16 61 0 20-5 40-16 57-27 41-81 63-132 54-58-10-96-56-96-113 0-59 42-111 98-111 11 0 20 0 29 0z" fill="#d7cec2"/>
    <path d="M165 77c14 0 28 3 40 9l-14 24-28-7z" fill="#1f1b18"/>
    <ellipse cx="176" cy="63" rx="35" ry="32" fill="#1f1b18"/>
    <circle cx="147" cy="52" r="18" fill="#1f1b18"/>
    <circle cx="202" cy="49" r="14" fill="#1f1b18"/>
    <path d="M128 116c20-18 44-31 69-36 18-4 41 0 57 12l-12 43c-17-10-38-12-57-7-18 4-34 13-50 27z" fill="#ded6cb"/>
    <path d="M177 116c38 3 76 24 95 56 14 23 18 52 10 78l-52 2-27-78z" fill="#3d3631"/>
    <path d="M126 119c18 33 29 70 30 108l-55 12c-9-47-7-91 25-124z" fill="#d7cec2"/>
    <path d="M157 228c26 12 54 16 82 11l-2 35c-24 8-52 8-79-5z" fill="#d7cec2"/>
    <path d="M245 149c22 9 39 29 47 52l-50-3z" fill="#24201d"/>
    <rect x="196" y="120" width="96" height="70" rx="8" fill="#2f2a26"/>
    <circle cx="243" cy="154" r="5" fill="#d8d0c5"/>
    <path d="M187 197l-30 61c-8 17-14 36-17 55l-41 0c6-31 17-61 32-88l29-51z" fill="#d7cec2"/>
    <path d="M233 250l23 63c5 15 10 31 16 45l42 0c-6-27-13-48-20-67l-20-58z" fill="#d7cec2"/>
    <path d="M94 360c24 0 42 10 42 22s-18 22-42 22-42-10-42-22 18-22 42-22z" fill="#3b342f"/>
    <path d="M313 366c20 0 37 8 37 18s-17 18-37 18-37-8-37-18 17-18 37-18z" fill="#3b342f"/>
  </g>
  <g fill="#101010">
    <path d="M117 424c0-12 10-22 22-22h74c12 0 22 10 22 22s-10 22-22 22h-16v66c0 12-10 22-22 22s-22-10-22-22v-66h-14c-12 0-22-10-22-22z"/>
    <path d="M257 402c12 0 22 10 22 22v88c0 12-10 22-22 22s-22-10-22-22v-88c0-12 10-22 22-22zm0-48c14 0 25 11 25 25s-11 25-25 25-25-11-25-25 11-25 25-25z"/>
    <path d="M305 424c0-12 10-22 22-22s22 10 22 22v26h23l29-39c7-9 20-12 30-7 11 5 16 17 12 28l-14 37c26 8 45 32 45 61 0 35-28 64-64 64h-40c-36 0-65-29-65-65zm44 70c0 12 9 22 21 22h34c11 0 20-9 20-20s-9-20-20-20h-55z"/>
    <path d="M511 379c0-14 11-25 25-25s25 11 25 25v13c18 0 35 4 49 11 11 6 15 19 10 30-6 11-19 15-30 10-9-5-18-7-29-7-12 0-19 3-19 8 0 6 8 10 30 15 37 9 62 25 62 59 0 31-23 51-57 57v10c0 14-11 25-25 25s-25-11-25-25v-11c-22-2-42-9-56-20-10-8-12-23-4-33s23-12 33-4c11 8 24 12 38 12 12 0 20-4 20-10 0-7-8-10-32-16-34-8-59-22-59-57 0-31 21-51 54-58z"/>
    <path d="M639 468c0-39 31-70 70-70 20 0 37 5 49 15 10 8 12 23 4 33-8 10-23 12-33 4-5-4-11-6-20-6-15 0-26 11-26 24s11 24 26 24c9 0 15-2 20-6 10-8 25-6 33 4 8 10 6 25-4 33-12 10-29 15-49 15-39 0-70-31-70-70z"/>
    <path d="M728 512c0-14 11-25 25-25s25 11 25 25-11 25-25 25-25-11-25-25z"/>
    <path d="M718 379c0-14 11-25 25-25s25 11 25 25-11 25-25 25-25-11-25-25z"/>
    <path d="M756 424c0-12 10-22 22-22h4c12 0 22 10 22 22v88c0 12-10 22-22 22h-4c-12 0-22-10-22-22z"/>
  </g>
</svg>
